<?xml version="1.0" encoding="UTF-8"?>
<svg xmlns="http://www.w3.org/2000/svg" xmlns:xlink="http://www.w3.org/1999/xlink" width="37.5pt" height="37.499999pt" viewBox="0 0 37.5 37.499999" version="1.2">
<defs>
<clipPath id="clip1">
  <path d="M 1 8 L 36 8 L 36 33.84375 L 1 33.84375 Z M 1 8 "/>
</clipPath>
<clipPath id="clip2">
  <path d="M 1 27 L 36 27 L 36 33.84375 L 1 33.84375 Z M 1 27 "/>
</clipPath>
<clipPath id="clip3">
  <path d="M 21 16 L 33 16 L 33 33.84375 L 21 33.84375 Z M 21 16 "/>
</clipPath>
<clipPath id="clip4">
  <path d="M 22 16 L 33 16 L 33 33.84375 L 22 33.84375 Z M 22 16 "/>
</clipPath>
<clipPath id="clip5">
  <path d="M 0 13 L 37.007812 13 L 37.007812 18 L 0 18 Z M 0 13 "/>
</clipPath>
<clipPath id="clip6">
  <path d="M 35 17 L 37.007812 17 L 37.007812 19 L 35 19 Z M 35 17 "/>
</clipPath>
<clipPath id="clip7">
  <path d="M 9 3.84375 L 29 3.84375 L 29 11 L 9 11 Z M 9 3.84375 "/>
</clipPath>
</defs>
<g id="surface1">
<g clip-path="url(#clip1)" clip-rule="nonzero">
<path style=" stroke:none;fill-rule:nonzero;fill:rgb(91.369629%,91.369629%,91.369629%);fill-opacity:1;" d="M 35.300781 34.03125 L 1.988281 34.03125 L 1.988281 8.152344 L 35.300781 8.152344 L 35.300781 34.03125 "/>
</g>
<path style=" stroke:none;fill-rule:nonzero;fill:rgb(91.369629%,91.369629%,91.369629%);fill-opacity:1;" d="M 36.035156 11.671875 L 1.257812 11.671875 L 1.257812 8.152344 L 36.035156 8.152344 L 36.035156 11.671875 "/>
<path style=" stroke:none;fill-rule:nonzero;fill:rgb(82.749939%,82.348633%,82.348633%);fill-opacity:1;" d="M 35.300781 11.671875 L 1.988281 11.671875 L 1.988281 12.171875 L 35.300781 12.171875 L 35.300781 11.671875 "/>
<g clip-path="url(#clip2)" clip-rule="nonzero">
<path style=" stroke:none;fill-rule:nonzero;fill:rgb(96.469116%,52.938843%,13.328552%);fill-opacity:1;" d="M 35.300781 34.03125 L 1.988281 34.03125 L 1.988281 27.835938 L 35.300781 27.835938 L 35.300781 34.03125 "/>
</g>
<g clip-path="url(#clip3)" clip-rule="nonzero">
<path style=" stroke:none;fill-rule:nonzero;fill:rgb(27.059937%,16.079712%,11.369324%);fill-opacity:1;" d="M 32.460938 34.03125 L 21.59375 34.03125 L 21.59375 16.003906 L 32.460938 16.003906 L 32.460938 34.03125 "/>
</g>
<g clip-path="url(#clip4)" clip-rule="nonzero">
<path style=" stroke:none;fill-rule:nonzero;fill:rgb(43.528748%,26.269531%,13.729858%);fill-opacity:1;" d="M 32.023438 34.03125 L 22.03125 34.03125 L 22.03125 16.5 L 32.023438 16.5 L 32.023438 34.03125 "/>
</g>
<path style=" stroke:none;fill-rule:nonzero;fill:rgb(48.629761%,75.689697%,76.858521%);fill-opacity:1;" d="M 31.042969 32.285156 L 22.851562 32.285156 L 22.851562 17.75 L 31.042969 17.75 L 31.042969 32.285156 "/>
<path style=" stroke:none;fill-rule:nonzero;fill:rgb(58.81958%,83.529663%,82.749939%);fill-opacity:1;" d="M 30.769531 31.800781 L 23.125 31.800781 L 23.125 18.234375 L 30.769531 18.234375 L 30.769531 31.800781 "/>
<path style=" stroke:none;fill-rule:nonzero;fill:rgb(65.098572%,85.488892%,82.749939%);fill-opacity:1;" d="M 23.125 31.800781 L 23.125 18.234375 L 30.769531 18.234375 Z M 23.125 31.800781 "/>
<path style=" stroke:none;fill-rule:nonzero;fill:rgb(35.289001%,19.219971%,7.839966%);fill-opacity:1;" d="M 31.640625 25.734375 L 22.414062 25.734375 L 22.414062 24.296875 L 31.640625 24.296875 L 31.640625 25.734375 "/>
<path style=" stroke:none;fill-rule:nonzero;fill:rgb(27.059937%,16.079712%,11.369324%);fill-opacity:1;" d="M 3.871094 30.082031 L 3.871094 15.941406 L 4.246094 15.457031 L 19.453125 15.457031 L 19.453125 29.496094 L 18.710938 30.082031 L 3.871094 30.082031 "/>
<path style=" stroke:none;fill-rule:nonzero;fill:rgb(43.528748%,26.269531%,13.729858%);fill-opacity:1;" d="M 4.246094 29.496094 L 4.246094 15.457031 L 19.453125 15.457031 L 19.453125 29.496094 L 4.246094 29.496094 "/>
<path style=" stroke:none;fill-rule:nonzero;fill:rgb(48.629761%,75.689697%,76.858521%);fill-opacity:1;" d="M 4.507812 28.980469 L 4.507812 15.941406 L 19.066406 15.941406 L 19.066406 28.980469 L 4.507812 28.980469 "/>
<path style=" stroke:none;fill-rule:nonzero;fill:rgb(58.81958%,83.529663%,82.749939%);fill-opacity:1;" d="M 4.753906 28.761719 L 4.753906 16.160156 L 18.820312 16.160156 L 18.820312 28.761719 L 4.753906 28.761719 "/>
<path style=" stroke:none;fill-rule:nonzero;fill:rgb(65.098572%,85.488892%,82.749939%);fill-opacity:1;" d="M 4.753906 16.160156 L 18.820312 16.160156 L 18.820312 28.761719 Z M 4.753906 16.160156 "/>
<path style=" stroke:none;fill-rule:nonzero;fill:rgb(35.289001%,19.219971%,7.839966%);fill-opacity:1;" d="M 11.25 28.980469 L 11.25 15.941406 L 12.070312 15.941406 L 12.070312 28.980469 L 11.25 28.980469 "/>
<path style=" stroke:none;fill-rule:nonzero;fill:rgb(82.749939%,82.348633%,82.348633%);fill-opacity:1;" d="M 23.339844 24.90625 C 23.339844 25.105469 23.183594 25.265625 22.988281 25.265625 C 22.789062 25.265625 22.632812 25.105469 22.632812 24.90625 C 22.632812 24.707031 22.789062 24.546875 22.988281 24.546875 C 23.183594 24.546875 23.339844 24.707031 23.339844 24.90625 "/>
<path style=" stroke:none;fill-rule:nonzero;fill:rgb(82.749939%,82.348633%,82.348633%);fill-opacity:1;" d="M 24.378906 24.949219 C 24.378906 25.046875 24.300781 25.128906 24.203125 25.128906 L 23.164062 25.128906 C 23.066406 25.128906 22.988281 25.046875 22.988281 24.949219 C 22.988281 24.847656 23.066406 24.769531 23.164062 24.769531 L 24.203125 24.769531 C 24.300781 24.769531 24.378906 24.847656 24.378906 24.949219 "/>
<path style=" stroke:none;fill-rule:nonzero;fill:rgb(82.749939%,82.348633%,82.348633%);fill-opacity:1;" d="M 3.324219 14.050781 L 33.578125 14.050781 L 33.578125 13.109375 L 3.324219 13.109375 L 3.324219 14.050781 "/>
<g clip-path="url(#clip5)" clip-rule="nonzero">
<path style=" stroke:none;fill-rule:nonzero;fill:rgb(94.509888%,31.759644%,10.5896%);fill-opacity:1;" d="M 0.046875 17.753906 L 37.453125 17.753906 L 33.304688 13.582031 L 3.652344 13.582031 L 0.046875 17.753906 "/>
</g>
<path style=" stroke:none;fill-rule:nonzero;fill:rgb(97.648621%,65.489197%,16.859436%);fill-opacity:1;" d="M 2.246094 17.753906 L 35.34375 17.753906 L 31.671875 13.582031 L 5.433594 13.582031 L 2.246094 17.753906 "/>
<path style=" stroke:none;fill-rule:nonzero;fill:rgb(94.509888%,31.759644%,10.5896%);fill-opacity:1;" d="M 4.457031 17.753906 L 33.132812 17.753906 L 29.949219 13.582031 L 7.21875 13.582031 L 4.457031 17.753906 "/>
<path style=" stroke:none;fill-rule:nonzero;fill:rgb(97.648621%,65.489197%,16.859436%);fill-opacity:1;" d="M 6.65625 17.753906 L 30.851562 17.753906 L 28.167969 13.582031 L 8.984375 13.582031 L 6.65625 17.753906 "/>
<path style=" stroke:none;fill-rule:nonzero;fill:rgb(94.509888%,31.759644%,10.5896%);fill-opacity:1;" d="M 8.84375 17.753906 L 28.652344 17.753906 L 26.453125 13.582031 L 10.75 13.582031 L 8.84375 17.753906 "/>
<path style=" stroke:none;fill-rule:nonzero;fill:rgb(97.648621%,65.489197%,16.859436%);fill-opacity:1;" d="M 11.046875 17.753906 L 26.453125 17.753906 L 24.746094 13.582031 L 12.53125 13.582031 L 11.046875 17.753906 "/>
<path style=" stroke:none;fill-rule:nonzero;fill:rgb(94.509888%,31.759644%,10.5896%);fill-opacity:1;" d="M 13.246094 17.753906 L 24.25 17.753906 L 23.03125 13.582031 L 14.308594 13.582031 L 13.246094 17.753906 "/>
<path style=" stroke:none;fill-rule:nonzero;fill:rgb(97.648621%,65.489197%,16.859436%);fill-opacity:1;" d="M 15.449219 17.753906 L 22.050781 17.753906 L 21.316406 13.582031 L 16.085938 13.582031 L 15.449219 17.753906 "/>
<path style=" stroke:none;fill-rule:nonzero;fill:rgb(94.509888%,31.759644%,10.5896%);fill-opacity:1;" d="M 17.644531 17.753906 L 19.847656 17.753906 L 19.601562 13.582031 L 17.859375 13.582031 L 17.644531 17.753906 "/>
<path style=" stroke:none;fill-rule:nonzero;fill:rgb(89.408875%,25.489807%,10.5896%);fill-opacity:1;" d="M 0.046875 17.753906 C 0.0507812 18.367188 0.542969 18.863281 1.148438 18.863281 C 1.753906 18.863281 2.242188 18.367188 2.246094 17.753906 L 0.046875 17.753906 "/>
<path style=" stroke:none;fill-rule:nonzero;fill:rgb(96.859741%,56.858826%,17.248535%);fill-opacity:1;" d="M 2.246094 17.753906 C 2.25 18.367188 2.742188 18.863281 3.347656 18.863281 C 3.953125 18.863281 4.441406 18.367188 4.445312 17.753906 L 2.246094 17.753906 "/>
<path style=" stroke:none;fill-rule:nonzero;fill:rgb(89.408875%,25.489807%,10.5896%);fill-opacity:1;" d="M 4.449219 17.753906 C 4.449219 18.367188 4.941406 18.863281 5.546875 18.863281 C 6.152344 18.863281 6.644531 18.367188 6.648438 17.753906 L 4.449219 17.753906 "/>
<path style=" stroke:none;fill-rule:nonzero;fill:rgb(96.859741%,56.858826%,17.248535%);fill-opacity:1;" d="M 6.648438 17.753906 C 6.652344 18.367188 7.140625 18.863281 7.746094 18.863281 C 8.351562 18.863281 8.84375 18.367188 8.847656 17.753906 L 6.648438 17.753906 "/>
<path style=" stroke:none;fill-rule:nonzero;fill:rgb(89.408875%,25.489807%,10.5896%);fill-opacity:1;" d="M 8.847656 17.753906 C 8.851562 18.367188 9.34375 18.863281 9.949219 18.863281 C 10.554688 18.863281 11.042969 18.367188 11.046875 17.753906 L 8.847656 17.753906 "/>
<path style=" stroke:none;fill-rule:nonzero;fill:rgb(96.859741%,56.858826%,17.248535%);fill-opacity:1;" d="M 11.050781 17.753906 C 11.054688 18.367188 11.542969 18.863281 12.148438 18.863281 C 12.753906 18.863281 13.246094 18.367188 13.246094 17.753906 L 11.050781 17.753906 "/>
<path style=" stroke:none;fill-rule:nonzero;fill:rgb(89.408875%,25.489807%,10.5896%);fill-opacity:1;" d="M 13.25 17.753906 C 13.253906 18.367188 13.742188 18.863281 14.347656 18.863281 C 14.953125 18.863281 15.445312 18.367188 15.449219 17.753906 L 13.25 17.753906 "/>
<path style=" stroke:none;fill-rule:nonzero;fill:rgb(96.859741%,56.858826%,17.248535%);fill-opacity:1;" d="M 15.449219 17.753906 C 15.453125 18.367188 15.945312 18.863281 16.550781 18.863281 C 17.15625 18.863281 17.644531 18.367188 17.648438 17.753906 L 15.449219 17.753906 "/>
<path style=" stroke:none;fill-rule:nonzero;fill:rgb(89.408875%,25.489807%,10.5896%);fill-opacity:1;" d="M 17.652344 17.753906 C 17.652344 18.367188 18.144531 18.863281 18.75 18.863281 C 19.355469 18.863281 19.847656 18.367188 19.847656 17.753906 L 17.652344 17.753906 "/>
<path style=" stroke:none;fill-rule:nonzero;fill:rgb(96.859741%,56.858826%,17.248535%);fill-opacity:1;" d="M 19.851562 17.753906 C 19.855469 18.367188 20.34375 18.863281 20.949219 18.863281 C 21.554688 18.863281 22.046875 18.367188 22.050781 17.753906 L 19.851562 17.753906 "/>
<path style=" stroke:none;fill-rule:nonzero;fill:rgb(89.408875%,25.489807%,10.5896%);fill-opacity:1;" d="M 22.050781 17.753906 C 22.054688 18.367188 22.546875 18.863281 23.152344 18.863281 C 23.757812 18.863281 24.246094 18.367188 24.25 17.753906 L 22.050781 17.753906 "/>
<path style=" stroke:none;fill-rule:nonzero;fill:rgb(96.859741%,56.858826%,17.248535%);fill-opacity:1;" d="M 24.25 17.753906 C 24.253906 18.367188 24.746094 18.863281 25.351562 18.863281 C 25.957031 18.863281 26.449219 18.367188 26.449219 17.753906 L 24.25 17.753906 "/>
<path style=" stroke:none;fill-rule:nonzero;fill:rgb(89.408875%,25.489807%,10.5896%);fill-opacity:1;" d="M 26.453125 17.753906 C 26.457031 18.367188 26.945312 18.863281 27.550781 18.863281 C 28.15625 18.863281 28.648438 18.367188 28.652344 17.753906 L 26.453125 17.753906 "/>
<path style=" stroke:none;fill-rule:nonzero;fill:rgb(96.859741%,56.858826%,17.248535%);fill-opacity:1;" d="M 28.652344 17.753906 C 28.65625 18.367188 29.148438 18.863281 29.75 18.863281 C 30.359375 18.863281 30.847656 18.367188 30.851562 17.753906 L 28.652344 17.753906 "/>
<path style=" stroke:none;fill-rule:nonzero;fill:rgb(89.408875%,25.489807%,10.5896%);fill-opacity:1;" d="M 30.851562 17.753906 C 30.855469 18.367188 31.347656 18.863281 31.953125 18.863281 C 32.558594 18.863281 33.050781 18.367188 33.050781 17.753906 L 30.851562 17.753906 "/>
<path style=" stroke:none;fill-rule:nonzero;fill:rgb(96.859741%,56.858826%,17.248535%);fill-opacity:1;" d="M 33.054688 17.753906 C 33.058594 18.367188 33.546875 18.863281 34.152344 18.863281 C 34.757812 18.863281 35.25 18.367188 35.25 17.753906 L 33.054688 17.753906 "/>
<g clip-path="url(#clip6)" clip-rule="nonzero">
<path style=" stroke:none;fill-rule:nonzero;fill:rgb(89.408875%,25.489807%,10.5896%);fill-opacity:1;" d="M 35.253906 17.753906 C 35.257812 18.367188 35.746094 18.863281 36.351562 18.863281 C 36.957031 18.863281 37.449219 18.367188 37.453125 17.753906 L 35.253906 17.753906 "/>
</g>
<g clip-path="url(#clip7)" clip-rule="nonzero">
<path style=" stroke:none;fill-rule:nonzero;fill:rgb(96.469116%,52.938843%,13.328552%);fill-opacity:1;" d="M 28.183594 10.742188 L 9.105469 10.742188 L 9.105469 3.84375 L 28.183594 3.84375 L 28.183594 10.742188 "/>
</g>
<path style=" stroke:none;fill-rule:nonzero;fill:rgb(93.328857%,94.119263%,83.139038%);fill-opacity:1;" d="M 11.386719 8.730469 L 11.386719 7.496094 L 11.808594 7.496094 L 11.808594 7.796875 C 12.007812 8.167969 12.273438 8.351562 12.597656 8.351562 C 12.761719 8.351562 12.902344 8.300781 13.019531 8.199219 C 13.132812 8.09375 13.191406 7.960938 13.191406 7.792969 C 13.191406 7.632812 13.144531 7.515625 13.050781 7.445312 C 12.957031 7.375 12.78125 7.304688 12.519531 7.234375 C 12.21875 7.152344 11.996094 7.074219 11.851562 7 C 11.707031 6.929688 11.589844 6.824219 11.503906 6.691406 C 11.417969 6.554688 11.375 6.398438 11.375 6.210938 C 11.375 5.925781 11.46875 5.699219 11.65625 5.527344 C 11.84375 5.359375 12.078125 5.273438 12.363281 5.273438 C 12.632812 5.273438 12.882812 5.359375 13.113281 5.535156 L 13.113281 5.308594 L 13.523438 5.308594 L 13.523438 6.34375 L 13.113281 6.34375 L 13.113281 6.105469 C 12.941406 5.84375 12.703125 5.710938 12.398438 5.710938 C 12.214844 5.710938 12.074219 5.753906 11.976562 5.839844 C 11.878906 5.925781 11.828125 6.027344 11.828125 6.144531 C 11.828125 6.238281 11.855469 6.316406 11.902344 6.386719 C 11.953125 6.457031 12.015625 6.507812 12.09375 6.539062 C 12.171875 6.574219 12.324219 6.617188 12.550781 6.675781 C 12.847656 6.753906 13.0625 6.828125 13.195312 6.894531 C 13.332031 6.964844 13.445312 7.078125 13.542969 7.234375 C 13.640625 7.394531 13.6875 7.574219 13.6875 7.78125 C 13.6875 8.070312 13.585938 8.3125 13.382812 8.5 C 13.183594 8.691406 12.933594 8.785156 12.632812 8.785156 C 12.328125 8.785156 12.050781 8.671875 11.808594 8.449219 L 11.808594 8.730469 L 11.386719 8.730469 "/>
<path style=" stroke:none;fill-rule:nonzero;fill:rgb(93.328857%,94.119263%,83.139038%);fill-opacity:1;" d="M 15.011719 8.304688 L 15.011719 5.753906 L 14.316406 5.753906 L 14.316406 6.621094 L 13.902344 6.621094 L 13.902344 5.328125 L 16.625 5.328125 L 16.625 6.621094 L 16.210938 6.621094 L 16.210938 5.753906 L 15.519531 5.753906 L 15.519531 8.304688 L 15.957031 8.304688 L 15.957031 8.730469 L 14.582031 8.730469 L 14.582031 8.304688 L 15.011719 8.304688 "/>
<path style=" stroke:none;fill-rule:nonzero;fill:rgb(93.328857%,94.119263%,83.139038%);fill-opacity:1;" d="M 17.40625 7.015625 C 17.40625 7.390625 17.515625 7.703125 17.730469 7.957031 C 17.945312 8.207031 18.230469 8.335938 18.582031 8.335938 C 18.929688 8.335938 19.214844 8.207031 19.441406 7.945312 C 19.664062 7.6875 19.777344 7.378906 19.777344 7.019531 C 19.777344 6.65625 19.660156 6.351562 19.433594 6.101562 C 19.207031 5.851562 18.917969 5.726562 18.574219 5.726562 C 18.230469 5.726562 17.949219 5.847656 17.734375 6.09375 C 17.515625 6.339844 17.40625 6.648438 17.40625 7.015625 Z M 16.851562 7.011719 C 16.851562 6.519531 17.011719 6.105469 17.332031 5.773438 C 17.652344 5.4375 18.066406 5.273438 18.578125 5.273438 C 19.097656 5.273438 19.519531 5.4375 19.84375 5.773438 C 20.167969 6.105469 20.332031 6.523438 20.332031 7.023438 C 20.332031 7.535156 20.164062 7.957031 19.835938 8.289062 C 19.503906 8.621094 19.082031 8.785156 18.570312 8.785156 C 18.246094 8.785156 17.945312 8.707031 17.671875 8.550781 C 17.398438 8.390625 17.195312 8.171875 17.058594 7.890625 C 16.921875 7.609375 16.851562 7.316406 16.851562 7.011719 "/>
<path style=" stroke:none;fill-rule:nonzero;fill:rgb(93.328857%,94.119263%,83.139038%);fill-opacity:1;" d="M 21.609375 6.714844 L 22.003906 6.714844 C 22.195312 6.714844 22.339844 6.703125 22.429688 6.675781 C 22.519531 6.652344 22.59375 6.601562 22.652344 6.523438 C 22.710938 6.445312 22.738281 6.339844 22.738281 6.210938 C 22.738281 6.097656 22.710938 6.003906 22.652344 5.929688 C 22.59375 5.851562 22.519531 5.804688 22.433594 5.78125 C 22.347656 5.761719 22.214844 5.753906 22.039062 5.753906 L 21.609375 5.753906 Z M 21.101562 8.304688 L 21.101562 5.753906 L 20.640625 5.753906 L 20.640625 5.328125 L 22.003906 5.328125 C 22.289062 5.328125 22.515625 5.347656 22.683594 5.394531 C 22.851562 5.4375 22.992188 5.53125 23.101562 5.675781 C 23.210938 5.820312 23.265625 6 23.265625 6.21875 C 23.265625 6.667969 23.035156 6.949219 22.570312 7.066406 L 23.164062 8.304688 L 23.574219 8.304688 L 23.574219 8.730469 L 22.847656 8.730469 L 22.082031 7.140625 L 21.609375 7.140625 L 21.609375 8.304688 L 22.039062 8.304688 L 22.039062 8.730469 L 20.640625 8.730469 L 20.640625 8.304688 L 21.101562 8.304688 "/>
<path style=" stroke:none;fill-rule:nonzero;fill:rgb(93.328857%,94.119263%,83.139038%);fill-opacity:1;" d="M 24.136719 8.304688 L 24.136719 5.753906 L 23.703125 5.753906 L 23.703125 5.328125 L 26.496094 5.328125 L 26.496094 6.351562 L 26.082031 6.351562 L 26.082031 5.753906 L 24.644531 5.753906 L 24.644531 6.765625 L 25.894531 6.765625 L 25.894531 7.191406 L 24.644531 7.191406 L 24.644531 8.304688 L 26.082031 8.304688 L 26.082031 7.6875 L 26.496094 7.6875 L 26.496094 8.730469 L 23.703125 8.730469 L 23.703125 8.304688 L 24.136719 8.304688 "/>
</g>
</svg>
