<?xml version="1.0" encoding="UTF-8"?>
<svg xmlns="http://www.w3.org/2000/svg" xmlns:xlink="http://www.w3.org/1999/xlink" width="30pt" height="30.000001pt" viewBox="0 0 30 30.000001" version="1.2">
<defs>
<clipPath id="clip1">
  <path d="M 0.484375 0 L 29.515625 0 L 29.515625 29 L 0.484375 29 Z M 0.484375 0 "/>
</clipPath>
</defs>
<g id="surface1">
<g clip-path="url(#clip1)" clip-rule="nonzero">
<path style=" stroke:none;fill-rule:nonzero;fill:rgb(65.098572%,65.098572%,65.098572%);fill-opacity:1;" d="M 12.25 0.0507812 C 5.722656 0.125 0.488281 5.472656 0.5625 12 C 0.632812 18.527344 5.980469 23.757812 12.507812 23.6875 C 14.917969 23.660156 17.265625 22.898438 19.230469 21.5 L 25.980469 28.25 C 26.75 29.011719 27.996094 29.003906 28.761719 28.230469 C 29.515625 27.464844 29.515625 26.234375 28.761719 25.46875 L 22.011719 18.71875 C 25.792969 13.398438 24.546875 6.019531 19.230469 2.238281 C 17.191406 0.789062 14.75 0.0234375 12.25 0.0507812 Z M 12.105469 2.097656 C 17.496094 1.945312 21.988281 6.195312 22.140625 11.585938 C 22.140625 11.679688 22.144531 11.773438 22.144531 11.867188 C 22.144531 17.261719 17.777344 21.632812 12.382812 21.636719 C 6.992188 21.636719 2.621094 17.269531 2.617188 11.878906 C 2.617188 11.875 2.617188 11.871094 2.617188 11.867188 C 2.609375 6.578125 6.820312 2.246094 12.105469 2.097656 Z M 12.105469 2.097656 "/>
</g>
<path style=" stroke:none;fill-rule:nonzero;fill:rgb(65.098572%,65.098572%,65.098572%);fill-opacity:1;" d="M 9.742188 4.628906 C 10.277344 4.4375 10.867188 4.714844 11.058594 5.25 C 11.25 5.78125 10.976562 6.363281 10.445312 6.558594 C 8.214844 7.371094 6.730469 9.496094 6.730469 11.871094 C 6.730469 12.4375 6.269531 12.898438 5.703125 12.898438 C 5.132812 12.898438 4.671875 12.4375 4.671875 11.871094 C 4.675781 8.628906 6.699219 5.734375 9.742188 4.628906 Z M 9.742188 4.628906 "/>
</g>
</svg>
