<?xml version="1.0" encoding="UTF-8"?>
<svg xmlns="http://www.w3.org/2000/svg" xmlns:xlink="http://www.w3.org/1999/xlink" width="30pt" height="30.000001pt" viewBox="0 0 30 30.000001" version="1.2">
<defs>
<clipPath id="clip1">
  <path d="M 3.386719 6 L 26.613281 6 L 26.613281 28.742188 L 3.386719 28.742188 Z M 3.386719 6 "/>
</clipPath>
<clipPath id="clip2">
  <path d="M 9 0.4375 L 21 0.4375 L 21 12 L 9 12 Z M 9 0.4375 "/>
</clipPath>
</defs>
<g id="surface1">
<g clip-path="url(#clip1)" clip-rule="nonzero">
<path style=" stroke:none;fill-rule:nonzero;fill:rgb(100%,100%,100%);fill-opacity:1;" d="M 24.5625 28.742188 L 5.554688 28.742188 C 4.996094 28.742188 4.460938 28.507812 4.078125 28.097656 C 3.695312 27.6875 3.496094 27.125 3.527344 26.5625 L 4.554688 8.28125 C 4.613281 7.191406 5.507812 6.335938 6.582031 6.335938 L 23.535156 6.335938 C 24.609375 6.335938 25.5 7.191406 25.5625 8.28125 L 26.589844 26.5625 C 26.621094 27.125 26.421875 27.6875 26.039062 28.097656 C 25.65625 28.507812 25.117188 28.742188 24.5625 28.742188 Z M 6.582031 8.105469 C 6.425781 8.105469 6.300781 8.226562 6.292969 8.382812 L 5.261719 26.664062 C 5.257812 26.773438 5.308594 26.847656 5.34375 26.882812 C 5.375 26.917969 5.445312 26.972656 5.554688 26.972656 L 24.5625 26.972656 C 24.671875 26.972656 24.742188 26.917969 24.773438 26.882812 C 24.804688 26.847656 24.859375 26.773438 24.851562 26.660156 L 23.824219 8.378906 C 23.816406 8.226562 23.6875 8.105469 23.535156 8.105469 Z M 6.582031 8.105469 "/>
</g>
<g clip-path="url(#clip2)" clip-rule="nonzero">
<path style=" stroke:none;fill-rule:nonzero;fill:rgb(100%,100%,100%);fill-opacity:1;" d="M 19.988281 11.050781 C 19.507812 11.050781 19.121094 10.65625 19.121094 10.167969 L 19.121094 6.335938 C 19.121094 4.058594 17.296875 2.207031 15.058594 2.207031 C 12.820312 2.207031 10.996094 4.058594 10.996094 6.335938 L 10.996094 10.167969 C 10.996094 10.65625 10.605469 11.050781 10.125 11.050781 C 9.644531 11.050781 9.257812 10.65625 9.257812 10.167969 L 9.257812 6.335938 C 9.257812 3.082031 11.859375 0.4375 15.058594 0.4375 C 18.257812 0.4375 20.859375 3.082031 20.859375 6.335938 L 20.859375 10.167969 C 20.859375 10.65625 20.46875 11.050781 19.988281 11.050781 Z M 19.988281 11.050781 "/>
</g>
</g>
</svg>
